<svg xmlns="http://www.w3.org/2000/svg" viewBox="1765 1580 96490 96651">
<path fill="green" stroke="red" stroke-width="300" d="M98254 50455L98254 51678L98235 51678L98235 52880L97862 52880L97862 54126L98170 54126L98170 55348L98077 55348L98077 56531L97689 56531L97689 57637L96893 57637L96893 58863L96899 58863L96899 60170L97225 60170L97225 61251L96487 61251L96487 62456L96302 62456L96302 63504L95563 63504L95563 64780L95595 64780L95595 66007L95424 66007L95424 67085L94829 67085L94829 68132L94177 68132L94177 69198L93597 69198L93597 70571L93679 70571L93679 71581L92966 71581L92966 72553L92201 72553L92201 73783L91912 73783L91912 74838L91298 74838L91298 75645L90292 75645L90292 76555L89476 76555L89476 77942L89347 77942L89347 78924L88619 78924L88619 79839L87806 79839L87806 80963L87250 80963L87250 81892L86448 81892L86448 82814L85638 82814L85638 83468L84550 83468L84550 84606L83959 84606L83959 85308L82934 85308L82934 85766L81705 85766L81705 86447L80696 86447L80696 87298L79831 87298L79831 88549L79261 88549L79261 89319L78305 89319L78305 89822L77162 89822L77162 89953L75794 89953L75794 90604L74779 90604L74779 91165L73712 91165L73712 92092L72845 92092L72845 93117L72007 93117L72007 92994L70588 92994L70588 94234L69820 94234L69820 94583L68635 94583L68635 95191L67558 95191L67558 95449L66346 95449L66346 95121L64948 95121L64948 95955L63943 95955L63943 96113L62725 96113L62725 96661L61612 96661L61612 97153L60474 97153L60474 96735L59145 96735L59145 97078L57979 97078L57979 97243L56781 97243L56781 97716L55619 97716L55619 97410L54369 97410L54369 98082L53205 98082L53205 98230L51989 98230L51989 97571L50756 97571L50756 97753L49549 97753L49549 98019L48329 98019L48329 98099L47105 98099L47105 97844L45901 97844L45901 97294L44739 97294L44739 97476L43497 97476L43497 97825L42210 97825L42210 97423L41037 97423L41037 97367L39798 97367L39798 96775L38679 96775L38679 96167L37580 96167L37580 96134L36326 96134L36326 95543L35237 95543L35237 95144L34091 95144L34091 94615L32995 94615L32995 94781L31619 94781L31619 93974L30635 93974L30635 93797L29373 93797L29373 92636L28584 92636L28584 92671L27194 92671L27194 92034L26147 92034L26147 90801L25459 90801L25459 90403L24283 90403L24283 89917L23147 89917L23147 89500L21949 89500L21949 88206L21385 88206L21385 87650L20283 87650L20283 86800L19410 86800L19410 85754L18715 85754L18715 85603L17217 85603L17217 84345L16729 84345L16729 83501L15859 83501L15859 82837L14795 82837L14795 81579L14375 81579L14375 80822L13402 80822L13402 80184L12259 80184L12259 78795L12065 78795L12065 77809L11369 77809L11369 77030L10371 77030L10371 76106L9562 76106L9562 74790L9377 74790L9377 73793L8693 73793L8693 72892L7821 72892L7821 72017L6862 72017L6862 70764L6637 70764L6637 69545L6379 69545L6379 68704L5252 68704L5252 67545L4843 67545L4843 66140L5123 66140L5123 65191L4145 65191L4145 64074L3611 64074L3611 62801L3608 62801L3608 61472L3901 61472L3901 60474L2846 60474L2846 59212L2920 59212L2920 57954L3073 57954L3073 56822L2471 56822L2471 55634L2160 55634L2160 54435L1875 54435L1875 53198L2015 53198L2015 51969L2257 51969L2257 50758L2282 50758L2282 50423L94860 50423L94860 48342L2368 48342L2368 47097L1766 47097L1766 45933L2525 45933L2525 44743L2746 44743L2746 43515L2655 43515L2655 42342L2983 42342L2983 41118L3007 41118L3007 39829L2774 39829L2774 38720L3394 38720L3394 37465L3407 37465L3407 36244L3587 36244L3587 35114L4077 35114L4077 34140L4994 34140L4994 33074L5590 33074L5590 31843L5763 31843L5763 30594L5931 30594L5931 29452L6370 29452L6370 28522L7241 28522L7241 27453L7812 27453L7812 26312L8257 26312L8257 25408L9113 25408L9113 24031L9200 24031L9200 23175L10122 23175L10122 22308L11005 22308L11005 21470L11907 21470L11907 20413L12514 20413L12514 19537L13352 19537L13352 18377L13860 18377L13860 17643L14858 17643L14858 16856L15785 16856L15785 15832L16471 15832L16471 14620L16999 14620L16999 14072L18151 14072L18151 12912L18764 12912L18764 12226L19789 12226L19789 11978L21139 11978L21139 11161L22040 11161L22040 9943L22677 9943L22677 9926L24128 9926L24128 9337L25184 9337L25184 8409L26042 8409L26042 7797L27094 7797L27094 7307L28209 7307L28209 7061L29438 7061L29438 6451L30486 6451L30486 5391L31353 5391L31353 4879L32468 4879L32468 4840L33757 4840L33757 4494L34924 4494L34924 4012L36046 4012L36046 3959L37295 3959L37295 3126L38334 3126L38334 3239L39613 3239L39613 2564L40717 2564L40717 2853L42008 2853L42008 2670L43206 2670L43206 2090L44357 2090L44357 1762L45554 1762L45554 2084L46805 2084L46805 2482L48039 2482L48039 1581L49230 1581L49230 1659L50456 1659L50456 2018L51669 2018L51669 1956L52891 1956L52891 2193L54094 2193L54094 2609L55271 2609L55271 2933L56446 2933L56446 2626L57715 2626L57715 2378L59000 2378L59000 2984L60125 2984L60125 3267L61310 3267L61310 3453L62521 3453L62521 3695L63723 3695L63723 4637L64704 4637L64704 4590L66001 4590L66001 5549L66941 5549L66941 5859L68117 5859L68117 6136L69315 6136L69315 6915L70290 6915L70290 7153L71521 7153L71521 8054L72417 8054L72417 8244L73694 8244L73694 8468L74979 8468L74979 9798L75587 9798L75587 10499L76571 10499L76571 11039L77667 11039L77667 11227L79038 11227L79038 12404L79672 12404L79672 12733L80977 12733L80977 13711L81752 13711L81752 14626L82570 14626L82570 15348L83567 15348L83567 16696L83938 16696L83938 17486L84857 17486L84857 18429L85614 18429L85614 18778L87070 18778L87070 19757L87813 19757L87813 21197L87945 21197L87945 22088L88772 22088L88772 23049L89511 23049L89511 23822L90547 23822L90547 25084L90826 25084L90826 25924L91795 25924L91795 27089L92210 27089L92210 28402L92314 28402L92314 29161L93515 29161L93515 30242L94093 30242L94093 31603L94009 31603L94009 32639L94681 32639L94681 33723L95255 33723L95255 34810L95847 34810L95847 36069L95912 36069L95912 37269L96132 37269L96132 38512L96157 38512L96157 39596L96836 39596L96836 40686L97592 40686L97592 41917L97680 41917L97680 43180L97510 43180L97510 44434L97251 44434L97251 45627L97447 45627L97447 46818L97729 46818L97729 48017L98055 48017L98055 49234L98160 49234L98160 50455Z" />
</svg>